<svg width="41" height="57" viewBox="0 0 41 57" fill="none" xmlns="http://www.w3.org/2000/svg">
<path fill-rule="evenodd" clip-rule="evenodd" d="M22.8097 25.9175L23.0022 25.56C24.9549 26.6967 29.4763 29.4268 31.9406 31.253C31.9222 32.7932 31.7591 36.8526 31.253 40.769C31.0238 42.7217 30.0814 47.5622 28.1452 51.3025C29.2545 49.8265 31.7316 45.7195 32.7657 41.099C33.1232 39.788 33.9373 35.8515 34.3333 30.593C32.2248 29.3737 27.0506 26.5721 23.2222 25.1199L23.4972 24.5424C26.33 25.3216 32.9472 27.2981 36.7536 28.9703C36.6711 30.9505 36.1815 36.1485 34.8834 41.099C34.2127 43.6568 32.3641 50.2409 27.1276 56.5556C27.1998 56.4811 27.2876 56.3926 27.3906 56.2888C28.5043 55.1665 31.3927 52.256 35.4609 45.912C37.4961 42.1441 38.8438 37.7987 40.5489 27.4576C36.5335 26.165 31.0605 24.7349 23.6623 23.9648L23.8823 23.5248C26.6326 23.3781 33.0572 23.2772 36.7536 24.0473C37.1753 21.2329 37.0231 14.7019 33.7008 11.0935C34.4342 13.1012 35.802 18.0792 34.7459 21.9296C32.0598 21.9113 26.143 22.0231 23.9648 22.6172L23.6073 22.1496C25.2207 21.187 28.9043 19.1793 30.7305 18.8493C30.7364 18.8053 30.7424 18.761 30.7485 18.7165C31.2729 14.8592 32.0962 8.80314 26.5226 1C27.8702 3.77778 30.0484 10.4829 28.6403 17.5016L23.1672 21.4895L22.7547 20.912L24.4323 19.1793C24.1298 18.6843 23.2277 17.5787 22.0396 17.1166C22.608 17.795 23.3762 19.2948 21.9021 19.8669H19.7294C19.0968 19.7019 18.1837 18.9208 19.5919 17.1166C19.0143 17.3825 17.7437 18.1672 17.2816 19.1793L18.5467 20.692L18.2717 21.242L12.9912 17.5292C12.3678 14.8431 11.8581 7.78218 14.8064 1.0275C14.5692 1.46429 14.3408 1.88071 14.1216 2.28053C11.1384 7.72132 9.84115 10.0872 10.7635 18.8493C11.7994 19.0693 14.6029 20.0264 17.5291 22.0946L17.3641 22.4521C14.8522 22.2138 9.21782 21.7866 6.77557 21.9846C6.35386 20.0227 5.96699 15.0979 7.79318 11.0935C4.90539 15.1639 4.32783 18.1342 4.82288 24.1298C6.90392 23.7264 12.3256 23.0407 17.3641 23.5248L17.5291 23.9648C13.8254 24.4323 5.33443 25.7855 1 27.4576C1.12137 28.1076 1.23918 28.745 1.35468 29.3697C2.41696 35.116 3.28282 39.7998 4.90539 43.4917C7.65584 48.7811 10.0044 51.4984 12.8614 54.804C13.3469 55.3657 13.847 55.9444 14.3663 56.5556C9.93839 50.4224 5.35093 42.7217 4.82288 28.9703C7.73817 27.806 14.4763 25.2904 18.1067 24.5424L18.3542 25.1199C15.3839 26.3759 8.9758 29.2178 7.32563 30.538C7.34384 30.7826 7.36177 31.0283 7.37977 31.2752C7.79696 36.9936 8.25807 43.314 13.2937 51.3025C11.7261 47.8647 9.9549 43.9483 9.58086 31.253C11.7536 29.7954 16.5886 26.6161 18.5468 25.56L18.7668 25.9175C17.7767 26.5501 15.4774 28.1397 14.2013 29.4378C14.1188 29.9696 14.0033 31.9516 14.2013 35.626C15.1456 37.3403 17.7822 41.0495 20.7745 42.1716C22.3055 41.5482 25.747 39.3663 27.2651 35.626C27.3843 34.7459 27.5952 32.2871 27.4851 29.4928C26.5684 28.6586 24.3498 26.7756 22.8097 25.9175ZM17.859 27.3477L17.8475 27.3571C17.2639 27.8388 15.9407 28.9309 15.3287 29.6304C15.3379 30.7763 15.4222 33.3928 15.5762 34.5809C16.2638 35.9377 18.3375 38.9318 20.8018 40.0539C22.0669 39.3939 25.0042 37.2871 25.9723 34.5809C25.9773 34.528 25.9828 34.4703 25.9887 34.4081C26.0807 33.4458 26.2748 31.4144 26.2748 29.7404C25.7339 29.1628 24.4816 27.8757 23.7995 27.3477C24.1388 27.7877 24.9382 28.8823 25.4222 29.7404C25.4681 30.2813 25.4379 31.6211 25.2572 32.7657C25.0922 33.8108 23.6895 36.6986 20.8018 37.9087C19.5091 37.3757 16.8579 35.6008 16.3738 32.7657C16.2913 32.3807 16.1428 31.3191 16.2088 29.8229C16.4993 29.3775 17.0079 28.6185 17.4179 28.0067C17.5902 27.7496 17.745 27.5185 17.859 27.3477Z" fill="#EDF1F7"/>
<path d="M23.0022 25.56L23.0954 25.3999L22.9299 25.3036L22.8391 25.4722L23.0022 25.56ZM22.8097 25.9175L22.6466 25.8297L22.5601 25.9904L22.7195 26.0793L22.8097 25.9175ZM31.9406 31.253L32.1258 31.2552L32.1269 31.1606L32.0508 31.1042L31.9406 31.253ZM31.253 40.769L31.0693 40.7452L31.0691 40.7474L31.253 40.769ZM28.1452 51.3025L27.9807 51.2174L28.2932 51.4138L28.1452 51.3025ZM32.7657 41.099L32.5868 41.0502L32.585 41.0586L32.7657 41.099ZM34.3333 30.593L34.518 30.6069L34.5267 30.4909L34.426 30.4326L34.3333 30.593ZM23.2222 25.1199L23.055 25.0403L22.9686 25.2218L23.1565 25.2931L23.2222 25.1199ZM23.4972 24.5424L23.5464 24.3638L23.3968 24.3226L23.33 24.4627L23.4972 24.5424ZM36.7536 28.9703L36.9386 28.978L36.9439 28.8516L36.828 28.8008L36.7536 28.9703ZM34.8834 41.099L34.7043 41.052L34.7043 41.052L34.8834 41.099ZM27.1276 56.5556L26.9851 56.4373L27.2606 56.6844L27.1276 56.5556ZM27.3906 56.2888L27.522 56.4192L27.522 56.4192L27.3906 56.2888ZM35.4609 45.912L35.6173 46.0122L35.6239 46L35.4609 45.912ZM40.5489 27.4576L40.7317 27.4878L40.7576 27.3303L40.6057 27.2814L40.5489 27.4576ZM23.6623 23.9648L23.4966 23.882L23.377 24.1213L23.6431 24.149L23.6623 23.9648ZM23.8823 23.5248L23.8724 23.3398L23.7648 23.3456L23.7166 23.4419L23.8823 23.5248ZM36.7536 24.0473L36.7158 24.2286L36.9077 24.2686L36.9367 24.0747L36.7536 24.0473ZM33.7008 11.0935L33.837 10.9681L33.5268 11.1571L33.7008 11.0935ZM34.7459 21.9296L34.7446 22.1148L34.8868 22.1157L34.9245 21.9786L34.7459 21.9296ZM23.9648 22.6172L23.8177 22.7297L23.8933 22.8286L24.0135 22.7958L23.9648 22.6172ZM23.6073 22.1496L23.5124 21.9906L23.3339 22.097L23.4601 22.2621L23.6073 22.1496ZM30.7305 18.8493L30.7634 19.0315L30.8959 19.0076L30.914 18.8742L30.7305 18.8493ZM30.7485 18.7165L30.565 18.6915L30.565 18.6915L30.7485 18.7165ZM26.5226 1L26.6732 0.892363L26.3559 1.08083L26.5226 1ZM28.6403 17.5016L28.7493 17.6513L28.8076 17.6088L28.8218 17.5381L28.6403 17.5016ZM23.1672 21.4895L23.0165 21.5972L23.1252 21.7493L23.2763 21.6392L23.1672 21.4895ZM22.7547 20.912L22.6216 20.7832L22.5143 20.894L22.604 21.0196L22.7547 20.912ZM24.4323 19.1793L24.5654 19.3081L24.6651 19.2051L24.5903 19.0828L24.4323 19.1793ZM22.0396 17.1166L22.1067 16.944L21.8976 17.2355L22.0396 17.1166ZM21.9021 19.8669V20.0521H21.9368L21.9691 20.0395L21.9021 19.8669ZM19.7294 19.8669L19.6826 20.0461L19.7056 20.0521H19.7294V19.8669ZM19.5919 17.1166L19.7378 17.2306L19.5144 16.9484L19.5919 17.1166ZM17.2816 19.1793L17.1132 19.1024L17.0647 19.2086L17.1396 19.2981L17.2816 19.1793ZM18.5467 20.692L18.7124 20.7748L18.7667 20.6662L18.6888 20.5732L18.5467 20.692ZM18.2717 21.242L18.1652 21.3935L18.3412 21.5172L18.4374 21.3248L18.2717 21.242ZM12.9912 17.5292L12.8108 17.571L12.8268 17.6399L12.8847 17.6806L12.9912 17.5292ZM14.8064 1.0275L14.9761 1.10158L14.6436 0.939121L14.8064 1.0275ZM14.1216 2.28053L14.284 2.36956L14.284 2.36956L14.1216 2.28053ZM10.7635 18.8493L10.5793 18.8687L10.5934 19.0025L10.725 19.0304L10.7635 18.8493ZM17.5291 22.0946L17.6973 22.1722L17.7619 22.0323L17.636 21.9434L17.5291 22.0946ZM17.3641 22.4521L17.3466 22.6365L17.4773 22.6489L17.5323 22.5297L17.3641 22.4521ZM6.77557 21.9846L6.59452 22.0235L6.62866 22.1823L6.79054 22.1692L6.77557 21.9846ZM7.79318 11.0935L7.96167 11.1703L7.64214 10.9864L7.79318 11.0935ZM4.82288 24.1298L4.63832 24.1451L4.65532 24.3509L4.85812 24.3116L4.82288 24.1298ZM17.3641 23.5248L17.5375 23.4597L17.4969 23.3515L17.3818 23.3404L17.3641 23.5248ZM17.5291 23.9648L17.5523 24.1485L17.7848 24.1192L17.7025 23.8998L17.5291 23.9648ZM1 27.4576L0.933346 27.2849L0.789701 27.3403L0.817961 27.4916L1 27.4576ZM1.35468 29.3697L1.53678 29.3361L1.53678 29.3361L1.35468 29.3697ZM4.90539 43.4917L4.73549 43.5664L4.74109 43.5772L4.90539 43.4917ZM12.8614 54.804L13.0015 54.6829L13.0015 54.6829L12.8614 54.804ZM14.3663 56.5556L14.2252 56.6755L14.5165 56.4472L14.3663 56.5556ZM4.82288 28.9703L4.7542 28.7983L4.63282 28.8468L4.63783 28.9774L4.82288 28.9703ZM18.1067 24.5424L18.2769 24.4694L18.2174 24.3305L18.0693 24.361L18.1067 24.5424ZM18.3542 25.1199L18.4264 25.2905L18.5977 25.218L18.5244 25.047L18.3542 25.1199ZM7.32563 30.538L7.20995 30.3933L7.13371 30.4543L7.14096 30.5517L7.32563 30.538ZM7.37977 31.2752L7.19508 31.2887L7.19508 31.2887L7.37977 31.2752ZM13.2937 51.3025L13.1371 51.4013L13.4622 51.2257L13.2937 51.3025ZM9.58086 31.253L9.47769 31.0992L9.39274 31.1562L9.39575 31.2585L9.58086 31.253ZM18.5468 25.56L18.7045 25.4629L18.6128 25.3139L18.4588 25.397L18.5468 25.56ZM18.7668 25.9175L18.8665 26.0735L19.0199 25.9755L18.9245 25.8204L18.7668 25.9175ZM14.2013 29.4378L14.0693 29.308L14.0275 29.3505L14.0183 29.4094L14.2013 29.4378ZM14.2013 35.626L14.0164 35.6359L14.0187 35.6782L14.0391 35.7153L14.2013 35.626ZM20.7745 42.1716L20.7095 42.345L20.7773 42.3704L20.8443 42.3431L20.7745 42.1716ZM27.2651 35.626L27.4367 35.6956L27.4455 35.674L27.4486 35.6508L27.2651 35.626ZM27.4851 29.4928L27.6702 29.4856L27.6671 29.4081L27.6098 29.3559L27.4851 29.4928ZM17.8475 27.3571L17.9654 27.4999L17.9654 27.4999L17.8475 27.3571ZM17.859 27.3477L18.013 27.4504L17.7411 27.2048L17.859 27.3477ZM15.3287 29.6304L15.1893 29.5084L15.143 29.5614L15.1435 29.6319L15.3287 29.6304ZM15.5762 34.5809L15.3926 34.6047L15.3967 34.6362L15.411 34.6646L15.5762 34.5809ZM20.8018 40.0539L20.725 40.2225L20.8073 40.2599L20.8874 40.2181L20.8018 40.0539ZM25.9723 34.5809L26.1466 34.6433L26.1544 34.6214L26.1566 34.5983L25.9723 34.5809ZM25.9887 34.4081L25.8044 34.3904L25.8044 34.3904L25.9887 34.4081ZM26.2748 29.7404H26.46V29.6672L26.41 29.6138L26.2748 29.7404ZM23.7995 27.3477L23.9129 27.2012L23.6529 27.4607L23.7995 27.3477ZM25.4222 29.7404L25.6067 29.7248L25.6033 29.6846L25.5835 29.6494L25.4222 29.7404ZM25.2572 32.7657L25.0743 32.7368L25.0743 32.7368L25.2572 32.7657ZM20.8018 37.9087L20.7312 38.0799L20.8023 38.1093L20.8733 38.0795L20.8018 37.9087ZM16.3738 32.7657L16.5565 32.7345L16.5549 32.7269L16.3738 32.7657ZM16.2088 29.8229L16.0537 29.7217L16.026 29.7642L16.0238 29.8147L16.2088 29.8229ZM17.4179 28.0067L17.5717 28.1098L17.5717 28.1098L17.4179 28.0067ZM22.8391 25.4722L22.6466 25.8297L22.9727 26.0053L23.1652 25.6478L22.8391 25.4722ZM32.0508 31.1042C29.5775 29.2713 25.0479 26.5366 23.0954 25.3999L22.909 25.72C24.8618 26.8569 29.3752 29.5824 31.8303 31.4018L32.0508 31.1042ZM31.4367 40.7927C31.9439 36.8674 32.1074 32.8006 32.1258 31.2552L31.7554 31.2508C31.7371 32.7858 31.5743 36.8377 31.0694 40.7452L31.4367 40.7927ZM28.3097 51.3877C30.2602 47.6196 31.2064 42.7545 31.4369 40.7906L31.0691 40.7474C30.8412 42.6889 29.9026 47.5047 27.9807 51.2174L28.3097 51.3877ZM32.585 41.0586C31.558 45.6469 29.0952 49.7303 27.9972 51.1913L28.2932 51.4138C29.4138 49.9228 31.9051 45.792 32.9464 41.1395L32.585 41.0586ZM34.1487 30.5791C33.7534 35.8277 32.941 39.7524 32.587 41.0503L32.9443 41.1477C33.3054 39.8237 34.1212 35.8753 34.518 30.6069L34.1487 30.5791ZM23.1565 25.2931C26.9704 26.7397 32.1341 29.5351 34.2406 30.7533L34.426 30.4326C32.3155 29.2122 27.1308 26.4044 23.2879 24.9468L23.1565 25.2931ZM23.33 24.4627L23.055 25.0403L23.3894 25.1995L23.6644 24.622L23.33 24.4627ZM36.828 28.8008C33.0081 27.1226 26.3794 25.1431 23.5464 24.3638L23.4481 24.7209C26.2807 25.5001 32.8862 27.4736 36.6791 29.1398L36.828 28.8008ZM35.0625 41.146C36.3648 36.1796 36.8557 30.9679 36.9386 28.978L36.5685 28.9626C36.4864 30.9331 35.9982 36.1175 34.7043 41.052L35.0625 41.146ZM27.2701 56.6738C32.5327 50.3278 34.3896 43.7121 35.0625 41.146L34.7043 41.052C34.0358 43.6014 32.1956 50.1541 26.9851 56.4373L27.2701 56.6738ZM27.2592 56.1583C27.1564 56.2618 27.0677 56.3512 26.9946 56.4267L27.2606 56.6844C27.3318 56.6109 27.4188 56.5233 27.522 56.4192L27.2592 56.1583ZM35.305 45.812C31.2456 52.1423 28.3663 55.0427 27.2592 56.1583L27.522 56.4192C28.6424 55.2903 31.5398 52.3696 35.6168 46.012L35.305 45.812ZM40.3662 27.4275C38.6618 37.7638 37.318 42.0842 35.298 45.824L35.6239 46C37.6742 42.2041 39.0257 37.8335 40.7317 27.4878L40.3662 27.4275ZM23.6431 24.149C31.0264 24.9175 36.4868 26.3445 40.4922 27.6339L40.6057 27.2814C36.5803 25.9855 31.0946 24.5522 23.6814 23.7806L23.6431 24.149ZM23.7166 23.4419L23.4966 23.882L23.8279 24.0476L24.0479 23.6076L23.7166 23.4419ZM36.7913 23.866C33.0689 23.0905 26.6224 23.1932 23.8724 23.3398L23.8921 23.7097C26.6427 23.563 33.0455 23.464 36.7158 24.2286L36.7913 23.866ZM33.5645 11.2189C35.191 12.9854 36.0506 15.4796 36.4485 17.8982C36.8459 20.3146 36.7784 22.6315 36.5704 24.0199L36.9367 24.0747C37.1504 22.6486 37.2177 20.2929 36.8139 17.8381C36.4105 15.3855 35.5329 12.81 33.837 10.9681L33.5645 11.2189ZM34.9245 21.9786C35.4623 20.0177 35.3809 17.7812 35.0774 15.7926C34.7737 13.8017 34.2449 12.0432 33.8747 11.03L33.5268 11.1571C33.8901 12.1515 34.4119 13.8859 34.7113 15.8485C35.0111 17.8134 35.0855 19.9911 34.5673 21.8806L34.9245 21.9786ZM24.0135 22.7958C25.0799 22.505 27.0834 22.3288 29.1737 22.2287C31.2569 22.129 33.4042 22.1056 34.7446 22.1148L34.7471 21.7444C33.4014 21.7352 31.2473 21.7586 29.156 21.8588C27.0718 21.9585 25.0279 22.1353 23.9161 22.4385L24.0135 22.7958ZM23.4601 22.2621L23.8177 22.7297L24.1119 22.5047L23.7544 22.0371L23.4601 22.2621ZM30.6975 18.6671C29.7558 18.8372 28.3571 19.4331 27.0075 20.096C25.6514 20.7621 24.3227 21.5072 23.5124 21.9906L23.7021 22.3086C24.5053 21.8295 25.8251 21.0894 27.1707 20.4285C28.5228 19.7643 29.8789 19.1914 30.7634 19.0315L30.6975 18.6671ZM30.565 18.6915C30.5589 18.7361 30.5529 18.7804 30.547 18.8244L30.914 18.8742C30.9199 18.8302 30.9259 18.786 30.932 18.7414L30.565 18.6915ZM26.3719 1.10764C29.142 4.98579 30.318 8.42282 30.739 11.3642C31.1603 14.3078 30.8271 16.7635 30.565 18.6915L30.932 18.7414C31.1943 16.8122 31.5349 14.3112 31.1056 11.3117C30.676 8.30992 29.4768 4.81735 26.6732 0.892363L26.3719 1.10764ZM28.8218 17.5381C30.2406 10.4666 28.0475 3.71909 26.6892 0.919168L26.3559 1.08083C27.6928 3.83647 29.8562 10.4993 28.4587 17.4652L28.8218 17.5381ZM23.2763 21.6392L28.7493 17.6513L28.5312 17.352L23.0582 21.3399L23.2763 21.6392ZM22.604 21.0196L23.0165 21.5972L23.3179 21.3819L22.9054 20.8044L22.604 21.0196ZM24.2993 19.0505L22.6216 20.7832L22.8877 21.0408L24.5654 19.3081L24.2993 19.0505ZM21.9725 17.2892C23.1077 17.7307 23.9826 18.7985 24.2743 19.2759L24.5903 19.0828C24.277 18.5701 23.3477 17.4266 22.1067 16.944L21.9725 17.2892ZM21.9691 20.0395C22.3691 19.8843 22.6363 19.6579 22.788 19.3799C22.9388 19.1035 22.9635 18.7979 22.92 18.5044C22.834 17.9254 22.4763 17.3495 22.1815 16.9977L21.8976 17.2355C22.1713 17.5621 22.4819 18.0754 22.5536 18.5588C22.5889 18.7967 22.5648 19.0156 22.4628 19.2025C22.3617 19.3878 22.1722 19.5634 21.8351 19.6942L21.9691 20.0395ZM19.7294 20.0521H21.9021V19.6817H19.7294V20.0521ZM19.4459 17.0027C18.7267 17.9241 18.5614 18.6333 18.7178 19.1592C18.8739 19.6837 19.3282 19.9536 19.6826 20.0461L19.7761 19.6877C19.498 19.6151 19.1795 19.412 19.0728 19.0536C18.9667 18.6967 19.0488 18.1133 19.7378 17.2306L19.4459 17.0027ZM17.4501 19.2562C17.6637 18.7883 18.0713 18.3608 18.5087 18.0131C18.944 17.6669 19.3932 17.4119 19.6693 17.2848L19.5144 16.9484C19.2129 17.0872 18.738 17.3575 18.2782 17.7232C17.8203 18.0873 17.3616 18.5583 17.1132 19.1024L17.4501 19.2562ZM18.6888 20.5732L17.4237 19.0605L17.1396 19.2981L18.4047 20.8108L18.6888 20.5732ZM18.4374 21.3248L18.7124 20.7748L18.3811 20.6092L18.1061 21.1592L18.4374 21.3248ZM12.8847 17.6806L18.1652 21.3935L18.3782 21.0905L13.0977 17.3777L12.8847 17.6806ZM14.6367 0.953422C11.6689 7.75279 12.1807 14.8559 12.8108 17.571L13.1716 17.4873C12.5549 14.8302 12.0473 7.81156 14.9761 1.10158L14.6367 0.953422ZM14.284 2.36956C14.5032 1.96978 14.7317 1.55304 14.9691 1.11588L14.6436 0.939121C14.4066 1.37553 14.1785 1.79164 13.9592 2.19149L14.284 2.36956ZM10.9476 18.8299C10.4875 14.4581 10.5832 11.7005 11.1578 9.36364C11.7329 7.02449 12.7901 5.09419 14.284 2.36956L13.9592 2.19149C12.4699 4.90766 11.3869 6.8807 10.7981 9.27522C10.2088 11.672 10.1172 14.4784 10.5793 18.8687L10.9476 18.8299ZM17.636 21.9434C14.6895 19.8609 11.8629 18.8935 10.8019 18.6681L10.725 19.0304C11.736 19.2451 14.5162 20.1919 17.4223 22.2458L17.636 21.9434ZM17.5323 22.5297L17.6973 22.1722L17.361 22.017L17.196 22.3745L17.5323 22.5297ZM6.79054 22.1692C9.21333 21.9727 14.8303 22.3977 17.3466 22.6365L17.3816 22.2678C14.8741 22.0298 9.2223 21.6004 6.76061 21.8L6.79054 22.1692ZM7.62468 11.0167C5.77538 15.0718 6.16856 20.0418 6.59452 22.0235L6.95662 21.9457C6.53917 20.0036 6.15861 15.124 7.96167 11.1703L7.62468 11.0167ZM5.00744 24.1146C4.76044 21.1231 4.78279 18.9035 5.22026 16.9298C5.65692 14.9597 6.51005 13.2221 7.94421 11.2007L7.64214 10.9864C6.18851 13.0353 5.30897 14.818 4.85867 16.8496C4.40918 18.8776 4.39028 21.1409 4.63832 24.1451L5.00744 24.1146ZM17.3818 23.3404C12.3202 22.8541 6.87979 23.5425 4.78764 23.948L4.85812 24.3116C6.92806 23.9104 12.331 23.2273 17.3464 23.7091L17.3818 23.3404ZM17.7025 23.8998L17.5375 23.4597L17.1907 23.5898L17.3558 24.0298L17.7025 23.8998ZM1.06665 27.6304C5.37715 25.9675 13.8467 24.6163 17.5523 24.1485L17.506 23.7811C13.8042 24.2484 5.29172 25.6035 0.933346 27.2849L1.06665 27.6304ZM1.53678 29.3361C1.42129 28.7113 1.30344 28.0738 1.18204 27.4237L0.817961 27.4916C0.939291 28.1414 1.05708 28.7786 1.17258 29.4034L1.53678 29.3361ZM5.07492 43.4172C3.4629 39.7493 2.60041 35.0897 1.53678 29.3361L1.17258 29.4034C2.23351 35.1424 3.10274 39.8503 4.73586 43.5663L5.07492 43.4172ZM13.0015 54.6829C10.1469 51.3801 7.80989 48.6759 5.06969 43.4063L4.74109 43.5772C7.50179 48.8862 9.86192 51.6167 12.7213 54.9251L13.0015 54.6829ZM14.5075 56.4356C13.9876 55.8238 13.4869 55.2445 13.0015 54.6829L12.7213 54.9251C13.2068 55.4869 13.7065 56.065 14.2252 56.6755L14.5075 56.4356ZM4.63783 28.9774C5.16773 42.7769 9.77489 50.5123 14.2162 56.664L14.5165 56.4472C10.1019 50.3325 5.53414 42.6665 5.00793 28.9632L4.63783 28.9774ZM18.0693 24.361C14.4205 25.1129 7.6676 27.6348 4.7542 28.7983L4.89156 29.1423C7.80875 27.9772 14.5322 25.468 18.1441 24.7237L18.0693 24.361ZM18.5244 25.047L18.2769 24.4694L17.9365 24.6153L18.184 25.1929L18.5244 25.047ZM7.44132 30.6826C7.83942 30.3641 8.53603 29.9457 9.41486 29.4743C10.2903 29.0046 11.3358 28.4878 12.4242 27.9722C14.6007 26.9412 16.9428 25.9178 18.4264 25.2905L18.2821 24.9493C16.7954 25.578 14.4482 26.6036 12.2656 27.6375C11.1744 28.1544 10.1228 28.6742 9.23977 29.1479C8.36015 29.6198 7.63693 30.0518 7.20995 30.3933L7.44132 30.6826ZM7.56447 31.2617C7.54646 31.0149 7.52853 30.769 7.51031 30.5242L7.14096 30.5517C7.15915 30.7962 7.17707 31.0418 7.19508 31.2887L7.56447 31.2617ZM13.4504 51.2038C8.44005 43.2555 7.98117 36.9734 7.56447 31.2617L7.19508 31.2887C7.61275 37.0137 8.07608 43.3726 13.1371 51.4013L13.4504 51.2038ZM9.39575 31.2585C9.58299 37.6135 10.1201 41.7793 10.8092 44.7906C11.4989 47.805 12.34 49.6573 13.1252 51.3794L13.4622 51.2257C12.6798 49.51 11.8514 47.6851 11.1702 44.708C10.4883 41.7279 9.95276 37.5878 9.76596 31.2476L9.39575 31.2585ZM18.4588 25.397C16.491 26.4583 11.6477 29.6434 9.47769 31.0992L9.68403 31.4068C11.8594 29.9474 16.6861 26.7739 18.6347 25.7229L18.4588 25.397ZM18.9245 25.8204L18.7045 25.4629L18.389 25.657L18.6091 26.0145L18.9245 25.8204ZM14.3334 29.5677C15.5939 28.2855 17.8779 26.7051 18.8665 26.0735L18.6671 25.7614C17.6755 26.395 15.361 27.994 14.0693 29.308L14.3334 29.5677ZM14.3862 35.616C14.1883 31.944 14.3049 29.978 14.3843 29.4662L14.0183 29.4094C13.9327 29.9611 13.8183 31.9592 14.0164 35.6359L14.3862 35.616ZM20.8395 41.9982C19.3844 41.4525 18.0011 40.2704 16.8577 38.9971C15.7166 37.7266 14.8294 36.3824 14.3635 35.5366L14.0391 35.7153C14.5175 36.5839 15.4207 37.9515 16.5821 39.2446C17.7411 40.5351 19.1723 41.7686 20.7095 42.345L20.8395 41.9982ZM27.0935 35.5563C25.6002 39.2355 22.2067 41.3885 20.7046 42.0001L20.8443 42.3431C22.4042 41.708 25.8937 39.4972 27.4367 35.6956L27.0935 35.5563ZM27.3001 29.5001C27.4097 32.2831 27.1994 34.7311 27.0816 35.6011L27.4486 35.6508C27.5692 34.7607 27.7806 32.2912 27.6702 29.4856L27.3001 29.5001ZM22.7195 26.0793C24.2392 26.9259 26.444 28.7958 27.3605 29.6298L27.6098 29.3559C26.6927 28.5214 24.4604 26.6252 22.8998 25.7557L22.7195 26.0793ZM17.9654 27.4999L17.9768 27.4905L17.7411 27.2048L17.7296 27.2143L17.9654 27.4999ZM15.4681 29.7523C16.0678 29.067 17.3765 27.986 17.9654 27.4999L17.7296 27.2143C17.1513 27.6916 15.8137 28.7949 15.1893 29.5084L15.4681 29.7523ZM15.7599 34.5571C15.6074 33.3812 15.523 30.7747 15.5139 29.6289L15.1435 29.6319C15.1527 30.778 15.237 33.4044 15.3926 34.6047L15.7599 34.5571ZM20.8785 39.8854C19.6812 39.3402 18.5674 38.3336 17.663 37.2845C16.7599 36.2369 16.0781 35.1616 15.7414 34.4972L15.411 34.6646C15.7619 35.357 16.4607 36.4571 17.3825 37.5263C18.3029 38.594 19.4581 39.6456 20.725 40.2225L20.8785 39.8854ZM25.7979 34.5185C25.3277 35.8329 24.3744 37.0123 23.3719 37.9495C22.3705 38.8857 21.3336 39.5676 20.7161 39.8897L20.8874 40.2181C21.5351 39.8802 22.5994 39.1787 23.6249 38.22C24.6494 37.2622 25.6487 36.0351 26.1466 34.6433L25.7979 34.5185ZM25.8044 34.3904C25.7984 34.4526 25.7929 34.5104 25.7879 34.5634L26.1566 34.5983C26.1616 34.5456 26.1671 34.4879 26.1731 34.4257L25.8044 34.3904ZM26.0896 29.7404C26.0896 31.404 25.8965 33.4267 25.8044 34.3904L26.1731 34.4257C26.2649 33.4649 26.46 31.4247 26.46 29.7404H26.0896ZM23.6862 27.4941C24.3546 28.0115 25.5969 29.2874 26.1396 29.867L26.41 29.6138C25.8709 29.0382 24.6087 27.7399 23.9129 27.2012L23.6862 27.4941ZM25.5835 29.6494C25.0929 28.7796 24.287 27.6767 23.9462 27.2346L23.6529 27.4607C23.9905 27.8987 24.7835 28.985 25.2609 29.8314L25.5835 29.6494ZM25.4401 32.7946C25.6228 31.6375 25.654 30.2826 25.6067 29.7248L25.2377 29.756C25.2821 30.28 25.253 31.6047 25.0743 32.7368L25.4401 32.7946ZM20.8733 38.0795C22.3559 37.4583 23.4534 36.4082 24.2001 35.3845C24.9439 34.3648 25.3517 33.3545 25.4401 32.7946L25.0743 32.7368C24.9977 33.222 24.6216 34.1782 23.9009 35.1662C23.1831 36.1502 22.1354 37.1491 20.7302 37.7379L20.8733 38.0795ZM16.1913 32.7969C16.4418 34.2643 17.2519 35.4503 18.1551 36.3329C19.0578 37.215 20.064 37.8048 20.7312 38.0799L20.8723 37.7375C20.2469 37.4796 19.2811 36.9154 18.414 36.068C17.5474 35.2213 16.7899 34.1022 16.5564 32.7345L16.1913 32.7969ZM16.0238 29.8147C15.9571 31.3253 16.1066 32.4028 16.1927 32.8045L16.5549 32.7269C16.476 32.3586 16.3284 31.3128 16.3938 29.8311L16.0238 29.8147ZM17.2641 27.9036C16.8544 28.5149 16.345 29.2751 16.0537 29.7217L16.3639 29.9241C16.6536 29.4799 17.1614 28.722 17.5717 28.1098L17.2641 27.9036ZM17.7049 27.2449C17.5911 27.4156 17.4364 27.6464 17.2641 27.9036L17.5717 28.1098C17.744 27.8528 17.899 27.6215 18.013 27.4504L17.7049 27.2449Z" fill="#EDF1F7"/>
</svg>
