<svg width="200" height="200" viewBox="0 0 200 200" fill="none" xmlns="http://www.w3.org/2000/svg">
<rect width="200" height="200" rx="100" fill="#9F0D10"/>
<path fill-rule="evenodd" clip-rule="evenodd" d="M78.1063 33.1886C76.8891 35.0158 75.4383 37.7757 74.1859 40.646C73.9202 41.255 73.6179 41.9419 73.514 42.1724C72.5396 44.335 69.9696 51.2486 69.2489 53.6456C68.741 55.3351 68.0158 58.3302 67.7014 60.037C67.6536 60.2963 67.537 60.9093 67.4424 61.3991C67.1676 62.8203 66.6522 65.9351 66.4281 67.5286C66.3148 68.3354 66.1676 69.3645 66.101 69.8153C66.0345 70.2662 65.9745 70.997 65.9678 71.4394C65.9563 72.1884 65.9712 72.2458 66.1843 72.2759C66.3341 72.2971 67.0997 71.8629 68.4052 71.0164C70.2449 69.8235 71.2858 69.1536 76.2662 65.957C77.2539 65.3231 79.1603 64.0972 80.5028 63.2327C81.8453 62.3683 83.6152 61.2296 84.4359 60.7021C85.3284 60.1286 85.995 59.766 86.0946 59.7998C86.1863 59.8309 86.5864 60.1681 86.9837 60.5492C88.0721 61.5931 92.6022 66.4284 92.6391 66.5858C92.7213 66.9355 92.3358 66.7818 90.7417 65.8295C89.7981 65.2656 88.9037 64.7334 88.7541 64.6466C88.312 64.39 86.819 63.4657 86.4315 63.2086C86.2344 63.0778 85.9673 62.9708 85.8379 62.9708C85.46 62.9708 82.9427 64.7314 72.4068 72.3639C61.4578 80.2958 60.164 81.2165 60.0825 81.1334C59.9118 80.9595 59.7398 72.9511 59.8117 68.524C59.9393 60.6659 60.5083 54.6634 61.6838 48.7734C62.1114 46.6306 62.7603 44.0939 63.2518 42.6439C63.6328 41.5197 63.6747 41.2807 63.4904 41.2824C63.2991 41.2842 61.9618 43.9685 61.2201 45.8396C59.132 51.107 57.6453 57.0808 56.6044 64.3853C55.3117 73.4577 54.712 82.022 54.9983 87.3264C55.1297 89.7598 55.2258 90.2654 55.5575 90.2654C55.7699 90.2654 56.8853 89.3977 64.3683 83.4103C69.9153 78.9721 71.2776 77.8801 74.0461 75.6521C79.9906 70.8682 85.4879 66.6076 85.8714 66.487C86.1682 66.3938 87.1453 66.7931 89.8306 68.1054C92.1633 69.2453 92.5276 69.5417 91.4699 69.4391C90.8647 69.3804 88.0928 69.0024 87.1602 68.8515C86.7809 68.7901 86.505 68.7949 86.367 68.8654C86.0752 69.0146 84.2865 70.5449 78.0121 76.0132C77.0814 76.8243 75.3205 78.3582 74.099 79.4218C72.8774 80.4854 71.8261 81.4035 71.7625 81.4622C71.699 81.5209 70.4649 82.6062 69.02 83.874C62.8998 89.2442 58.1029 93.5187 54.9301 96.4294L53.0641 98.1413C53.0233 98.1788 53 98.2317 53 98.2872V98.6814C53 99.6934 53.731 105.305 54.3808 109.283C57.0019 125.324 61.7836 138.849 67.8626 147.416C68.8261 148.774 70.8347 151.367 71.0023 151.47C71.2513 151.622 71.1666 151.354 70.7189 150.573C68.263 146.284 65.2011 138.651 63.6765 133.015C62.9357 130.276 62.7363 129.469 62.2413 127.2C61.9505 125.866 61.8891 125.54 61.5714 123.637C61.4511 122.917 61.3076 122.068 61.2526 121.751C61.0051 120.326 60.4757 115.426 60.2999 112.934C60.1649 111.021 60.1633 103.209 60.2977 102.184C60.3525 101.767 60.4689 101.288 60.5565 101.12C60.7854 100.682 63.5315 97.637 69.4984 91.2061C70.5164 90.1091 72.1542 88.3406 73.1378 87.2761C74.1216 86.2118 75.17 85.0816 75.4676 84.7646C75.7651 84.4476 76.6497 83.4811 77.4331 82.6167C78.2166 81.7522 78.8836 81.0214 78.9152 80.9926C79.0409 80.8782 83.1015 76.3007 85.0129 74.1187C86.2819 72.6701 87.1618 71.7535 87.3623 71.6712C87.8345 71.4774 92.3605 71.7564 92.5051 71.9882C92.5823 72.1118 92.5031 72.1463 90.5777 72.8268C89.6059 73.1704 88.7131 73.5152 88.5936 73.5932C88.4742 73.6711 86.9763 75.9219 85.265 78.5949C83.5537 81.2679 81.9999 83.6906 81.8122 83.9788C81.4125 84.5923 74.2207 95.9777 72.8771 98.1238C72.3721 98.9306 71.0483 101.025 69.9354 102.778C68.75 104.646 67.912 106.071 67.912 106.22C67.912 106.534 68.599 112.67 68.8181 114.312C69.748 121.283 70.6147 125.599 72.5098 132.7C73.1573 135.126 74.9595 141.138 75.651 143.178C78.3543 151.155 81.5634 158.21 86.4579 166.937C86.9024 167.729 87.266 168.425 87.266 168.482C87.266 168.54 87.3136 168.587 87.3717 168.587C87.4299 168.587 87.4775 168.557 87.4775 168.52C87.4775 168.484 87.1477 167.599 86.7447 166.556C85.2968 162.806 82.5836 154.87 81.9763 152.608C81.9299 152.435 81.7668 151.893 81.6138 151.403C81.4609 150.914 81.2454 150.183 81.1352 149.779C80.9511 149.105 80.6061 147.873 80.0791 146.007C79.9061 145.395 79.2526 142.867 79.0769 142.131C79.0494 142.015 78.8842 141.332 78.7098 140.611C77.5843 135.961 76.5082 130.545 76.0033 126.99C75.5307 123.663 75.0061 117.591 74.7265 112.216C74.4809 107.491 74.4496 107.741 75.5746 105.458C76.086 104.421 76.7301 103.101 77.0062 102.524C77.5885 101.308 80.9135 94.4789 84.1477 87.8555C88.2897 79.3734 89.8116 76.3357 90.0467 76.0813C90.4493 75.6459 92.4665 74.3792 92.7039 74.4128C92.8432 74.4326 93.012 74.6172 93.1633 74.9155C93.4595 75.4993 94.3518 77.434 94.3518 77.4923C94.3518 77.5159 93.5991 78.6549 92.6791 80.0235C90.3057 83.5538 90.2997 83.5654 90.2453 84.692C90.1497 86.673 90.8158 91.6563 91.9277 97.2796C93.5391 105.428 95.0983 110.833 97.3695 116.144L97.3829 116.175C97.4487 116.329 97.6652 116.334 97.7422 116.185C97.9881 115.711 98.5914 115.183 99.2114 114.901C99.9408 114.569 101.09 114.601 101.878 114.976C102.427 115.238 103.004 115.757 103.303 116.259C103.368 116.369 103.456 116.428 103.497 116.39C103.756 116.146 105.328 111.882 106.196 109.073C106.629 107.669 107.786 103.319 107.992 102.315C108.052 102.027 108.171 101.485 108.258 101.11C108.412 100.445 109.372 95.6537 109.581 94.5089C109.682 93.9527 109.904 92.619 110.114 91.3132C110.515 88.8154 110.792 85.7456 110.724 84.5719C110.664 83.5567 110.601 83.4375 108.298 80.0229C107.375 78.6538 106.62 77.5152 106.62 77.4924C106.62 77.4696 106.804 77.0572 107.03 76.5761C107.256 76.095 107.546 75.4572 107.674 75.1587C108.084 74.2101 108.135 74.1992 109.193 74.8361C110.996 75.9213 110.858 75.7306 113.048 80.1479C114.121 82.3125 115.25 84.6022 115.556 85.2361C115.863 85.87 116.554 87.2845 117.091 88.3794C117.628 89.4744 118.389 91.0303 118.781 91.8371C119.173 92.6439 120.149 94.6478 120.949 96.2902C121.75 97.9326 122.702 99.8893 123.065 100.638C123.427 101.388 124.31 103.203 125.026 104.672C126.058 106.792 126.337 107.46 126.376 107.902C126.509 109.429 125.888 118.996 125.331 124.004C124.665 129.997 122.974 138.42 121 145.588C120.778 146.395 120.501 147.409 120.385 147.841C120.101 148.896 119.153 152.177 118.962 152.765C118.878 153.025 118.633 153.803 118.419 154.494C117.287 158.141 115.14 164.267 113.848 167.539C113.541 168.317 113.416 168.843 113.6 168.587C113.662 168.5 114.121 167.699 114.621 166.806C118.195 160.416 120.744 155.149 123.088 149.308C124.381 146.087 126.297 140.528 126.791 138.568C126.819 138.453 126.937 138.052 127.051 137.677C127.237 137.068 128.037 134.269 128.459 132.753C128.782 131.594 129.237 129.843 129.507 128.719C129.66 128.085 129.853 127.283 129.937 126.938C130.37 125.15 130.669 123.641 131.421 119.446C131.701 117.888 132.282 113.532 132.646 110.278C132.71 109.702 132.829 108.69 132.911 108.03C133.169 105.948 133.358 106.447 130.719 102.258C128.68 99.0218 127.832 97.6816 126.151 95.0328C125.499 94.0049 120.771 86.5182 120.229 85.6552C117.983 82.078 112.685 73.8764 112.503 73.6954C112.378 73.5707 111.573 73.227 110.692 72.9223C109.819 72.6206 108.974 72.3281 108.814 72.2722C108.654 72.2164 108.524 72.1107 108.524 72.0372C108.524 71.8591 108.939 71.8038 111.398 71.6548C113.276 71.541 113.505 71.5453 113.741 71.6989C113.885 71.7925 114.757 72.7313 115.677 73.7851C119.399 78.046 123.163 82.2203 127.56 86.9655C130.309 89.9315 135.315 95.343 136.816 96.9712C138.956 99.2934 140.295 100.871 140.487 101.298C140.661 101.688 140.701 102.146 140.779 104.68C140.86 107.349 140.785 111.664 140.62 113.756C140.513 115.115 140.253 117.775 140.151 118.555C140.099 118.959 140 119.737 139.931 120.284C139.385 124.632 137.967 131.134 136.71 135.058C136.243 136.515 135.261 139.436 135.178 139.616C135.125 139.731 134.959 140.171 134.81 140.595C133.911 143.14 131.496 148.434 130.218 150.66C129.166 152.494 130.514 151.156 132.369 148.525C136.228 143.054 139.432 136.495 141.9 129.012C144.04 122.524 145.973 114.066 147.076 106.365C147.408 104.045 147.831 100.502 147.926 99.2443L147.993 98.3621C147.997 98.3032 147.975 98.2454 147.933 98.2045L147.3 97.5955C146.526 96.8516 142.311 93.0199 140.569 91.4774C139.958 90.9366 138.649 89.7768 137.66 88.8998C135.339 86.8412 132.766 84.5694 131.837 83.7568C131.433 83.4043 130.22 82.3434 129.141 81.3993C123.921 76.8323 120.627 73.9638 118.088 71.7738C116.987 70.824 116.062 70.0225 116.032 69.9926C115.832 69.7875 114.777 68.9554 114.605 68.8664C114.468 68.7957 114.189 68.7893 113.812 68.8484C112.175 69.1049 109.493 69.4678 109.237 69.4674C109.068 69.4672 108.947 69.4096 108.947 69.3295C108.947 69.1799 113.907 66.7282 114.616 66.5273C114.992 66.4209 115.092 66.43 115.356 66.5944C116.229 67.1375 121.982 71.6672 131.315 79.1593C137.408 84.0513 141.892 87.6275 143.763 89.0873C145.37 90.3418 145.651 90.4632 145.799 89.9677C145.943 89.4826 146.071 85.1099 146.011 82.7214C145.976 81.3384 145.854 78.9101 145.741 77.3254C145.458 73.3823 145.424 73.0266 144.908 68.5764C144.749 67.2056 144.394 64.5533 144.212 63.3826C144.119 62.7815 144.003 62.0304 143.953 61.7135C143.904 61.3965 143.816 60.9014 143.758 60.6133C143.7 60.3252 143.597 59.7829 143.528 59.4084C142.648 54.5998 141.32 49.8078 139.81 45.9968C139.141 44.3103 137.974 41.9026 137.625 41.4913L137.556 41.4103C137.503 41.3476 137.401 41.3843 137.399 41.4666C137.397 41.5971 137.442 41.7857 137.498 41.8857C137.729 42.2943 138.806 46.1956 139.14 47.8304C140.608 55.0144 141.137 60.97 141.145 70.41C141.15 76.2757 141.032 81.0601 140.88 81.1532C140.806 81.1989 140.271 80.8267 137.183 78.5827C136.668 78.2081 135.303 77.2232 134.151 76.3939C132.998 75.5647 131.699 74.6217 131.264 74.2983C130.828 73.9751 130.368 73.6398 130.241 73.5534C129.88 73.3083 126.674 71.0052 126.556 70.9063C126.497 70.8576 125.617 70.2189 124.599 69.4867C123.581 68.7545 122.526 67.9908 122.253 67.7896C121.981 67.5885 121.325 67.1174 120.796 66.7428C120.266 66.3682 119.537 65.8476 119.175 65.5858C117.319 64.2424 115.39 62.9708 115.207 62.9708C115.016 62.9708 114.415 63.3172 110.14 65.894C108.652 66.7906 108.249 66.9446 108.333 66.5844C108.369 66.4268 113.134 61.3507 114.109 60.4299C114.471 60.0885 114.844 59.8275 114.97 59.8275C115.092 59.8275 116.012 60.3593 117.014 61.0094C118.015 61.6594 119.752 62.7792 120.872 63.4978C128.44 68.3515 130.301 69.5471 132.57 71.0159C133.86 71.8509 134.645 72.2961 134.79 72.2755C135.099 72.2319 135.13 71.7294 134.918 70.2005C134.827 69.5378 134.702 68.6183 134.641 68.1573C134.412 66.4146 133.871 63.1684 133.42 60.8229C132.538 56.2401 131.759 53.3991 130.33 49.5592C130.212 49.2423 129.917 48.4407 129.675 47.778C128.853 45.5315 127.378 41.9224 126.6 40.2529C126.43 39.8886 126.291 39.5689 126.291 39.542C126.291 39.5153 125.834 38.5874 125.276 37.48C124.396 35.7369 122.94 33.1911 122.447 32.533C122.045 31.9978 122.2 32.6296 122.888 34.3373C125.837 41.6509 127.806 49.1413 128.822 56.9086C129.037 58.5574 129.123 59.2618 129.412 61.7659C129.728 64.5079 129.769 64.8242 129.839 65.0998C129.888 65.2954 129.869 65.3807 129.774 65.3807C129.65 65.3807 128.355 64.5758 122.766 61.0253C121.729 60.3665 120.837 59.8275 120.783 59.8275C120.73 59.8275 120.686 59.7803 120.686 59.7227C120.686 59.6651 120.642 59.6179 120.588 59.6179C120.534 59.6179 120.213 59.4354 119.874 59.2124C119.535 58.9893 118.901 58.5801 118.465 58.3027C118.029 58.0255 117.474 57.6658 117.231 57.5034C116.989 57.3409 116.772 57.208 116.748 57.208C116.724 57.208 116.307 56.9487 115.821 56.6317C115.335 56.3148 114.848 56.0555 114.74 56.0555C114.542 56.0555 111.249 59.3222 108.587 62.1588C106.919 63.9367 106.814 63.9773 107.162 62.7089C107.273 62.3055 107.375 61.7161 107.389 61.3991C107.41 60.8949 107.364 60.7443 107.021 60.1942C106.489 59.3411 105.346 58.0613 104.336 57.1861C103.468 56.4348 102.636 55.8813 102.531 55.9855C102.497 56.0185 102.643 56.2785 102.853 56.5631C103.56 57.5173 104.082 58.9484 104.082 59.9353C104.082 60.5247 103.831 61.3999 103.57 61.719L103.447 61.8694C103.403 61.9225 103.335 61.9494 103.267 61.9403L101.941 61.7638C100.677 61.5955 100.381 61.5887 99.4646 61.7064C98.8921 61.78 98.2056 61.864 97.9393 61.8932L97.5989 61.9305C97.5132 61.9399 97.4313 61.8928 97.3963 61.814L97.2055 61.3846C96.592 60.0026 97.0031 57.9301 98.1856 56.4436C99.1072 55.2848 97.341 56.4127 95.8146 57.9577C94.7442 59.0409 93.9828 60.0076 93.6911 60.6531C93.5057 61.0635 93.4968 61.1799 93.6077 61.7533C93.6759 62.106 93.7999 62.627 93.8831 62.9113C93.9665 63.1954 94.0346 63.4665 94.0346 63.5138C94.0346 63.8027 93.5834 63.4315 92.3877 62.1588C89.8032 59.4079 86.4371 56.0555 86.2595 56.0555C86.1168 56.0555 81.9633 58.6103 80.8042 59.411C80.653 59.5154 80.2246 59.7874 79.8524 60.0155C79.48 60.2435 78.1046 61.1085 76.7958 61.9377C75.4871 62.7668 74.0445 63.6803 73.59 63.9677C73.1357 64.255 72.4564 64.6904 72.0805 64.9354C71.2988 65.4447 71.0251 65.5049 71.1267 65.1449C71.1633 65.0152 71.3586 63.4947 71.5606 61.7659C72.128 56.9093 72.1364 56.8451 72.5619 54.0647C73.0427 50.922 74.4469 44.7213 75.1008 42.8534C75.1513 42.7094 75.2753 42.3086 75.3766 41.9628C76.0058 39.8142 77.1592 36.5692 78.0396 34.4712C78.7603 32.7537 78.8866 32.375 78.7383 32.3766C78.6879 32.3771 78.4035 32.7426 78.1063 33.1886Z" fill="#F8FBFF"/>
</svg>
