<svg width="200" height="200" viewBox="0 0 200 200" fill="none" xmlns="http://www.w3.org/2000/svg">
<rect width="200" height="200" rx="100" fill="#0C0D11"/>
<path fill-rule="evenodd" clip-rule="evenodd" d="M84.2351 51.6107C83.351 52.9378 82.2973 54.9423 81.3876 57.0271C81.1947 57.4694 80.9751 57.9683 80.8996 58.1357C80.192 59.7065 78.3253 64.7279 77.8019 66.4689C77.4329 67.696 76.9062 69.8714 76.6778 71.1111C76.6431 71.2994 76.5585 71.7446 76.4897 72.1004C76.2902 73.1327 75.9158 75.3949 75.7531 76.5524C75.6707 77.1384 75.5638 77.8858 75.5155 78.2132C75.4672 78.5407 75.4236 79.0715 75.4187 79.3928C75.4104 79.9369 75.4212 79.9786 75.5759 80.0004C75.6848 80.0158 76.2408 79.7004 77.189 79.0856C78.5252 78.2192 79.2812 77.7326 82.8986 75.4108C83.616 74.9504 85.0006 74.06 85.9757 73.4322C86.9508 72.8044 88.2363 71.9773 88.8324 71.5942C89.4806 71.1776 89.9648 70.9142 90.0371 70.9388C90.1037 70.9614 90.3943 71.2063 90.6829 71.4831C91.4734 72.2413 94.7637 75.7532 94.7905 75.8676C94.8502 76.1216 94.5702 76.0099 93.4124 75.3182C92.727 74.9087 92.0774 74.5221 91.9688 74.4591C91.6477 74.2727 90.5633 73.6014 90.2819 73.4147C90.1387 73.3196 89.9446 73.2419 89.8507 73.2419C89.5762 73.2419 87.7478 74.5207 80.0955 80.0643C72.143 85.8254 71.2033 86.4941 71.1441 86.4337C71.0201 86.3074 70.8952 80.4908 70.9475 77.2753C71.0401 71.5679 71.4534 67.2081 72.3072 62.9301C72.6177 61.3738 73.0891 59.5314 73.446 58.4782C73.7228 57.6617 73.7532 57.4881 73.6193 57.4893C73.4804 57.4906 72.5091 59.4403 71.9704 60.7993C70.4538 64.6251 69.3739 68.964 68.6179 74.2693C67.679 80.8588 67.2435 87.0792 67.4514 90.9318C67.5468 92.6992 67.6166 93.0665 67.8575 93.0665C68.0119 93.0665 68.8219 92.4362 74.257 88.0875C78.2859 84.8639 79.2753 84.0708 81.2861 82.4526C85.6037 78.978 89.5964 75.8834 89.875 75.7958C90.0906 75.7281 90.8003 76.0181 92.7507 76.9713C94.4449 77.7992 94.7095 78.0145 93.9413 77.9399C93.5017 77.8973 91.4885 77.6228 90.8111 77.5132C90.5356 77.4686 90.3352 77.4721 90.235 77.5233C90.0231 77.6317 88.7239 78.7431 84.1666 82.7149C83.4907 83.304 82.2117 84.418 81.3245 85.1905C80.4373 85.9631 79.6737 86.6299 79.6275 86.6726C79.5814 86.7152 78.685 87.5034 77.6356 88.4243C73.1904 92.3247 69.7063 95.4294 67.4019 97.5435L66.0466 98.7868C66.0169 98.8141 66 98.8525 66 98.8928V99.1791C66 99.9141 66.5309 103.99 67.0029 106.879C68.9067 118.53 72.3797 128.354 76.7949 134.576C77.4948 135.562 78.9536 137.446 79.0754 137.52C79.2562 137.631 79.1947 137.436 78.8695 136.868C77.0857 133.754 74.8619 128.21 73.7545 124.116C73.2164 122.127 73.0716 121.54 72.7121 119.892C72.5009 118.924 72.4563 118.687 72.2255 117.305C72.1382 116.782 72.0339 116.165 71.994 115.935C71.8142 114.9 71.4297 111.341 71.302 109.531C71.204 108.141 71.2028 102.468 71.3004 101.723C71.3402 101.42 71.4248 101.072 71.4884 100.95C71.6546 100.632 73.6492 98.4205 77.9831 93.7497C78.7224 92.9529 79.912 91.6684 80.6264 90.8953C81.3409 90.1222 82.1024 89.3013 82.3186 89.0711C82.5346 88.8409 83.1771 88.1389 83.7462 87.511C84.3152 86.8832 84.7997 86.3524 84.8226 86.3315C84.9139 86.2484 87.8632 82.9237 89.2515 81.3389C90.1732 80.2867 90.8123 79.621 90.9579 79.5612C91.3009 79.4204 94.5882 79.6231 94.6932 79.7914C94.7492 79.8812 94.6917 79.9063 93.2933 80.4005C92.5874 80.6501 91.939 80.9005 91.8522 80.9572C91.7655 81.0138 90.6775 82.6485 89.4346 84.59C88.1917 86.5314 87.0631 88.2911 86.9267 88.5004C86.6365 88.946 81.4129 97.2154 80.4371 98.7741C80.0703 99.3601 79.1088 100.881 78.3005 102.155C77.4395 103.511 76.8309 104.546 76.8309 104.654C76.8309 104.883 77.3298 109.339 77.4889 110.532C78.1644 115.595 78.7939 118.73 80.1703 123.888C80.6406 125.65 81.9495 130.016 82.4518 131.498C84.4152 137.291 86.7461 142.416 90.301 148.754C90.6238 149.33 90.8879 149.835 90.8879 149.877C90.8879 149.918 90.9225 149.953 90.9647 149.953C91.007 149.953 91.0416 149.931 91.0416 149.904C91.0416 149.877 90.802 149.235 90.5093 148.477C89.4577 145.754 87.487 139.99 87.046 138.347C87.0122 138.222 86.8938 137.828 86.7826 137.472C86.6716 137.116 86.5151 136.585 86.4351 136.292C86.3013 135.803 86.0508 134.908 85.668 133.553C85.5423 133.108 85.0677 131.272 84.9401 130.737C84.9201 130.653 84.8001 130.157 84.6735 129.633C83.8559 126.256 83.0743 122.322 82.7076 119.74C82.3644 117.324 81.9833 112.914 81.7803 109.01C81.6019 105.578 81.5791 105.759 82.3963 104.101C82.7677 103.348 83.2356 102.389 83.4361 101.97C83.859 101.087 86.274 96.1268 88.623 91.3161C91.6315 85.1554 92.7369 82.9491 92.9076 82.7643C93.2 82.4481 94.6651 81.5281 94.8376 81.5524C94.9387 81.5668 95.0613 81.7009 95.1713 81.9176C95.3863 82.3416 96.0345 83.7468 96.0345 83.7891C96.0345 83.8063 95.4877 84.6336 94.8195 85.6276C93.0957 88.1917 93.0914 88.2001 93.0519 89.0184C92.9824 90.4572 93.4662 94.0767 94.2738 98.161C95.4442 104.079 96.5767 108.005 98.2263 111.862L98.236 111.885C98.2838 111.997 98.4411 112.001 98.4969 111.893C98.6755 111.548 99.1138 111.165 99.5641 110.96C100.094 110.718 100.929 110.742 101.501 111.014C101.9 111.204 102.319 111.581 102.536 111.946C102.583 112.026 102.647 112.069 102.677 112.041C102.865 111.864 104.007 108.767 104.637 106.727C104.952 105.707 105.792 102.548 105.942 101.818C105.985 101.609 106.072 101.215 106.135 100.943C106.247 100.46 106.944 96.9801 107.095 96.1486C107.169 95.7446 107.331 94.7759 107.483 93.8275C107.774 92.0133 107.975 89.7837 107.926 88.9312C107.883 88.1938 107.836 88.1072 106.164 85.6271C105.494 84.6328 104.945 83.8058 104.945 83.7892C104.945 83.7727 105.079 83.4732 105.243 83.1237C105.407 82.7742 105.617 82.311 105.711 82.0942C106.008 81.4052 106.046 81.3973 106.814 81.8599C108.124 82.6481 108.023 82.5096 109.614 85.7179C110.393 87.2901 111.213 88.9532 111.436 89.4136C111.659 89.874 112.16 90.9014 112.55 91.6966C112.941 92.4919 113.493 93.622 113.778 94.208C114.063 94.794 114.771 96.2494 115.353 97.4423C115.934 98.6352 116.625 100.056 116.889 100.601C117.153 101.145 117.794 102.463 118.313 103.53C119.063 105.07 119.266 105.555 119.294 105.876C119.391 106.985 118.94 113.934 118.535 117.571C118.051 121.924 116.823 128.042 115.389 133.248C115.228 133.834 115.027 134.571 114.942 134.884C114.737 135.651 114.048 138.034 113.909 138.461C113.848 138.65 113.67 139.215 113.514 139.717C112.692 142.365 111.133 146.815 110.195 149.192C109.972 149.756 109.881 150.138 110.015 149.953C110.059 149.89 110.393 149.308 110.756 148.659C113.352 144.018 115.203 140.192 116.906 135.95C117.845 133.61 119.237 129.573 119.595 128.149C119.616 128.066 119.701 127.775 119.784 127.503C119.919 127.06 120.501 125.027 120.807 123.926C121.042 123.084 121.372 121.813 121.569 120.996C121.679 120.535 121.82 119.953 121.881 119.702C122.195 118.404 122.412 117.308 122.959 114.261C123.161 113.129 123.584 109.965 123.848 107.602C123.895 107.183 123.981 106.449 124.041 105.969C124.228 104.457 124.365 104.819 122.448 101.777C120.967 99.4264 120.352 98.453 119.131 96.5291C118.657 95.7825 115.223 90.3448 114.829 89.718C113.198 87.1198 109.35 81.1629 109.218 81.0314C109.127 80.9408 108.542 80.6912 107.902 80.4699C107.269 80.2508 106.655 80.0383 106.539 79.9977C106.423 79.9572 106.328 79.8804 106.328 79.827C106.328 79.6977 106.63 79.6575 108.415 79.5493C109.78 79.4666 109.946 79.4697 110.117 79.5813C110.222 79.6493 110.855 80.3311 111.523 81.0966C114.227 84.1913 116.96 87.2231 120.154 90.6696C122.151 92.8239 125.786 96.7544 126.877 97.937C128.432 99.6236 129.404 100.77 129.543 101.08C129.67 101.363 129.699 101.695 129.755 103.536C129.814 105.475 129.759 108.608 129.64 110.128C129.562 111.115 129.373 113.047 129.299 113.614C129.261 113.907 129.189 114.472 129.139 114.87C128.743 118.028 127.713 122.75 126.8 125.6C126.461 126.659 125.748 128.78 125.687 128.91C125.648 128.994 125.528 129.314 125.42 129.621C124.767 131.47 123.013 135.315 122.085 136.932C121.321 138.264 122.3 137.292 123.647 135.382C126.45 131.407 128.777 126.644 130.569 121.209C132.124 116.497 133.528 110.353 134.329 104.76C134.57 103.075 134.877 100.502 134.946 99.5879L134.995 98.9472C134.998 98.9044 134.982 98.8624 134.951 98.8327L134.491 98.3904C133.93 97.8501 130.868 95.0671 129.602 93.9467C129.159 93.554 128.208 92.7115 127.49 92.0746C125.804 90.5794 123.936 88.9294 123.26 88.3392C122.967 88.0831 122.086 87.3126 121.303 86.6269C117.511 83.3098 115.119 81.2263 113.274 79.6357C112.474 78.9459 111.803 78.3637 111.781 78.342C111.636 78.1931 110.87 77.5887 110.744 77.524C110.645 77.4727 110.442 77.468 110.168 77.511C108.98 77.6973 107.032 77.9608 106.846 77.9606C106.723 77.9604 106.635 77.9186 106.635 77.8603C106.635 77.7517 110.238 75.971 110.753 75.8251C111.026 75.7478 111.099 75.7545 111.29 75.8739C111.924 76.2683 116.103 79.5582 122.881 84.9999C127.307 88.553 130.564 91.1505 131.922 92.2108C133.09 93.122 133.294 93.2101 133.401 92.8502C133.506 92.4979 133.599 89.322 133.555 87.5871C133.53 86.5826 133.442 84.8189 133.359 83.6679C133.154 80.804 133.129 80.5457 132.754 77.3134C132.639 76.3178 132.381 74.3913 132.249 73.541C132.181 73.1044 132.097 72.5589 132.061 72.3287C132.025 72.0985 131.961 71.7389 131.919 71.5297C131.877 71.3204 131.802 70.9265 131.752 70.6545C131.113 67.1619 130.148 63.6814 129.051 60.9134C128.566 59.6885 127.718 57.9398 127.464 57.6411L127.415 57.5822C127.376 57.5367 127.301 57.5634 127.301 57.6231C127.299 57.7179 127.332 57.8548 127.373 57.9275C127.54 58.2243 128.323 61.0579 128.565 62.2452C129.631 67.4631 130.015 71.7887 130.021 78.6452C130.025 82.9055 129.939 86.3805 129.829 86.4481C129.775 86.4813 129.386 86.211 127.144 84.5811C126.769 84.3091 125.778 83.5937 124.941 82.9914C124.104 82.3891 123.16 81.7042 122.844 81.4693C122.528 81.2345 122.194 80.991 122.101 80.9282C121.84 80.7502 119.511 79.0774 119.425 79.0056C119.382 78.9703 118.743 78.5064 118.003 77.9746C117.264 77.4428 116.498 76.8881 116.3 76.7419C116.102 76.5958 115.626 76.2537 115.241 75.9816C114.856 75.7095 114.327 75.3314 114.064 75.1413C112.716 74.1655 111.315 73.2419 111.182 73.2419C111.043 73.2419 110.607 73.4935 107.501 75.3651C106.421 76.0163 106.128 76.1282 106.189 75.8665C106.216 75.7521 109.676 72.0653 110.385 71.3965C110.647 71.1485 110.918 70.9589 111.01 70.9589C111.098 70.9589 111.766 71.3452 112.494 71.8173C113.222 72.2895 114.483 73.1028 115.297 73.6247C120.794 77.15 122.145 78.0184 123.793 79.0852C124.73 79.6917 125.3 80.0151 125.406 80.0001C125.63 79.9684 125.652 79.6035 125.499 78.493C125.432 78.0116 125.341 77.3438 125.297 77.009C125.131 75.7433 124.738 73.3855 124.41 71.6819C123.77 68.3533 123.204 66.2899 122.166 63.5009C122.08 63.2707 121.866 62.6885 121.69 62.2072C121.093 60.5755 120.022 57.9542 119.457 56.7415C119.333 56.477 119.233 56.2448 119.233 56.2253C119.233 56.2059 118.901 55.5319 118.495 54.7276C117.856 53.4616 116.799 51.6125 116.44 51.1345C116.149 50.7458 116.261 51.2047 116.761 52.445C118.903 57.757 120.333 63.1973 121.07 68.8388C121.227 70.0365 121.289 70.548 121.499 72.3668C121.729 74.3584 121.758 74.5881 121.809 74.7883C121.845 74.9303 121.831 74.9923 121.762 74.9923C121.672 74.9923 120.732 74.4077 116.672 71.8289C115.919 71.3504 115.271 70.9589 115.232 70.9589C115.193 70.9589 115.161 70.9246 115.161 70.8828C115.161 70.8409 115.129 70.8067 115.09 70.8067C115.051 70.8067 114.818 70.6741 114.572 70.5122C114.326 70.3502 113.865 70.0529 113.548 69.8515C113.231 69.6501 112.828 69.3888 112.652 69.2709C112.476 69.1528 112.318 69.0563 112.301 69.0563C112.284 69.0563 111.981 68.868 111.628 68.6378C111.275 68.4076 110.921 68.2192 110.843 68.2192C110.699 68.2192 108.307 70.5919 106.374 72.6522C105.162 73.9435 105.086 73.973 105.339 73.0517C105.42 72.7587 105.494 72.3306 105.503 72.1004C105.519 71.7342 105.486 71.6248 105.236 71.2252C104.85 70.6056 104.02 69.6761 103.286 69.0404C102.656 68.4947 102.051 68.0927 101.975 68.1684C101.951 68.1924 102.056 68.3812 102.209 68.5879C102.723 69.281 103.101 70.3204 103.101 71.0372C103.101 71.4653 102.919 72.101 102.73 72.3328L102.64 72.442C102.609 72.4806 102.559 72.5001 102.51 72.4935L101.547 72.3653C100.629 72.243 100.414 72.2381 99.7479 72.3236C99.3322 72.3771 98.8335 72.4381 98.6401 72.4592L98.3929 72.4864C98.3306 72.4932 98.2711 72.459 98.2457 72.4018L98.1072 72.0898C97.6616 71.0861 97.9602 69.5808 98.819 68.5011C99.4884 67.6595 98.2056 68.4787 97.0969 69.6009C96.3195 70.3876 95.7664 71.0897 95.5546 71.5586C95.4199 71.8567 95.4135 71.9412 95.494 72.3576C95.5436 72.6138 95.6336 72.9923 95.6941 73.1987C95.7546 73.4051 95.8041 73.602 95.8041 73.6363C95.8041 73.8462 95.4764 73.5766 94.6079 72.6522C92.7308 70.6542 90.2859 68.2192 90.1569 68.2192C90.0533 68.2192 87.0365 70.0748 86.1946 70.6564C86.0848 70.7323 85.7737 70.9298 85.5033 71.0955C85.2328 71.2611 84.2339 71.8893 83.2833 72.4916C82.3327 73.0938 81.2849 73.7572 80.9549 73.966C80.6249 74.1747 80.1315 74.4909 79.8585 74.6689C79.2907 75.0388 79.0919 75.0825 79.1657 74.8211C79.1923 74.7268 79.3342 73.6225 79.4809 72.3668C79.893 68.8394 79.8991 68.7927 80.2081 66.7733C80.5574 64.4907 81.5772 59.9871 82.0522 58.6304C82.0888 58.5258 82.1789 58.2347 82.2525 57.9835C82.7095 56.4229 83.5472 54.066 84.1866 52.5422C84.7101 51.2948 84.8018 51.0198 84.6941 51.0209C84.6575 51.0213 84.4509 51.2867 84.2351 51.6107Z" fill="#F8FBFF"/>
</svg>
