<svg width="19" height="19" viewBox="0 0 19 19" fill="none" xmlns="http://www.w3.org/2000/svg">
<path fill-rule="evenodd" clip-rule="evenodd" d="M5.32755 0.740234C2.56914 0.740234 0.333008 2.97637 0.333008 5.73478V13.5235C0.333008 16.2819 2.56914 18.518 5.32755 18.518H13.1162C15.8747 18.518 18.1108 16.2819 18.1108 13.5235V5.73478C18.1108 2.97637 15.8747 0.740234 13.1162 0.740234H5.32755ZM5.25821 2.38158C3.44499 2.38158 1.97508 3.85149 1.97508 5.66471V13.5931C1.97508 15.4063 3.44499 16.8762 5.25821 16.8762H13.1517C14.9649 16.8762 16.4348 15.4063 16.4348 13.5931V5.66471C16.4348 3.85149 14.9649 2.38158 13.1517 2.38158H5.25821Z" fill="#959698"/>
<path fill-rule="evenodd" clip-rule="evenodd" d="M9.22202 14.2224C11.7393 14.2224 13.78 12.1817 13.78 9.6644C13.78 7.14711 11.7393 5.10645 9.22202 5.10645C6.70473 5.10645 4.66406 7.14711 4.66406 9.6644C4.66406 12.1817 6.70473 14.2224 9.22202 14.2224ZM9.22135 12.6161C10.8706 12.6161 12.2076 11.2791 12.2076 9.62984C12.2076 7.98058 10.8706 6.64359 9.22135 6.64359C7.57209 6.64359 6.2351 7.98058 6.2351 9.62984C6.2351 11.2791 7.57209 12.6161 9.22135 12.6161Z" fill="#959698"/>
<circle cx="14.0067" cy="4.87972" r="1.06527" fill="#959698"/>
</svg>
