<svg width="43" height="18" viewBox="0 0 43 18" fill="none" xmlns="http://www.w3.org/2000/svg">
<rect width="42.963" height="17.8085" fill="#EC111A"/>
<path d="M1.44629 1.78125V16.028H4.00626L4.11756 9.68376L5.23059 16.028H6.67753L7.79056 9.68376V16.028H12.6879L13.0218 13.9133H15.0253L15.3592 16.028H20.3678V11.4646H20.9243L22.0373 16.028H24.5973L23.0391 10.6855C23.9163 9.80437 24.3307 9.21351 24.5973 7.56901L26.0443 16.028H29.1607L31.1642 3.4508V16.028H36.0615V13.4681H33.7242V10.2403H36.0615V7.56901H33.7242V4.45252H36.0615V1.78125H28.8268L27.6025 10.9081L26.6008 1.78125H23.7069L23.9295 3.89601C23.4843 2.78298 22.0373 1.78125 21.1469 1.78125H17.6965V14.2472L15.9157 1.78125H12.354L10.4618 14.6924V1.78125H7.12274L5.89841 8.79334L4.67408 1.78125H1.44629Z" fill="white"/>
<path d="M36.5067 16.028V1.78125H39.0667V13.5794H41.2928V16.028H36.5067Z" fill="white"/>
<path d="M14.1356 5.67643L13.3564 11.3529H14.9147L14.1356 5.67643Z" fill="#EC111A"/>
<path d="M20.3685 8.68161V4.22949C21.3937 4.55315 22.0381 5.11992 22.0381 6.56686C22.0381 7.56858 21.4108 8.54063 20.3685 8.68161Z" fill="#EC111A"/>
</svg>
