<svg width="24" height="18" viewBox="0 0 24 18" fill="none" xmlns="http://www.w3.org/2000/svg">
<path d="M1.28544 12.4414L7.94569 9.97141V12.2889L4.11376 13.5697C3.52522 13.8054 3.41006 13.9752 3.68799 14.3625C4.02256 14.6674 5.20863 14.6064 5.90808 14.3625L7.94569 13.5697V15.5822C7.2158 15.753 6.14124 15.7957 5.69519 15.7957C3.46091 15.806 0.941347 14.995 0.525136 14.6064C-0.3568 13.7831 -0.143893 12.9903 1.28544 12.4414Z" fill="white"/>
<path d="M8.70599 0V16.5885L12.4163 17.7778V3.68973C12.4795 3.17927 12.5994 2.97392 13.1157 2.89689C13.4825 2.8596 13.9946 3.41237 13.9673 3.68973V9.97141C14.4605 10.2642 14.7962 10.3563 15.4879 10.3983C17.2726 10.2623 18.0666 9.80523 18.1946 6.61712C18.2073 4.36953 17.6693 3.33845 15.4879 2.01258C12.9799 0.902403 11.4785 0.499446 8.70599 0Z" fill="white"/>
<path d="M13.1157 13.9661V11.6791C14.2811 11.3248 14.973 11.1638 16.3698 11.0387C18.0729 10.8861 19.8673 10.9167 22.5739 12.045C23.3951 12.3873 23.9729 13.6916 21.5703 14.6064L13.1157 17.5948V15.3383L19.259 13.2037C19.9938 12.9417 20.0497 12.5939 19.5631 12.4414C18.8941 12.1974 18.225 12.2279 17.5863 12.4414L13.1157 13.9661Z" fill="white"/>
</svg>
