<svg width="23" height="19" viewBox="0 0 23 19" fill="none" xmlns="http://www.w3.org/2000/svg">
<path d="M11.2958 6.23929C6.46596 6.05099 2.97527 3.09392 1.83366 1.63891C0.165151 4.37774 2.04588 6.71716 3.19481 7.54451C2.73816 7.59587 1.64339 7.25209 1.15308 7.07378C1.31115 10.0865 3.6778 11.2533 4.84136 11.4602C4.20908 11.6485 3.24603 11.6385 2.84354 11.61C3.65145 14.0407 6.00492 14.6483 7.08067 14.6483C5.0609 16.4628 1.71657 16.6882 0.296875 16.5741C4.70964 19.1417 11.5154 19.6553 16.3672 15.0763C19.5344 11.5998 20.2608 9.38328 20.4507 5.14804C21.6977 4.27504 22.4339 3.27222 22.6461 2.87994C22.1016 3.18806 20.7507 3.43627 20.1433 3.52186C21.2674 2.93986 21.8996 1.66744 22.0753 1.10399C21.4254 1.56616 19.8726 2.0098 19.1773 2.17384C18.0565 1.13238 17.283 0.858157 15.7306 0.740234C12.4594 0.932808 10.8348 3.32928 11.2958 6.23929Z" fill="#959698"/>
</svg>
