<svg width="31" height="38" viewBox="0 0 31 38" fill="none" xmlns="http://www.w3.org/2000/svg">
<path class="foguin" id="Foguinho" d="M3.52541 16.2011C-3.56848 28.5521 5.95338 34.9651 11.601 36.6277C7.1673 34.0308 7.4313 30.0563 8.11752 28.3937C10.3344 30.7372 13.4749 30.9009 14.768 30.6897C12.8679 26.6361 14.6625 22.7724 15.7973 21.3473C23.7146 26.9211 22.1047 33.8566 20.3101 36.6277C33.2311 31.8773 30.497 21.3473 27.5149 16.6761C27.7049 18.8296 25.905 21.1098 24.9813 21.9807C25.2347 16.6603 22.395 13.43 20.9435 12.48C16.2565 9.24972 15.5598 4.27239 15.7973 2.1875C7.94334 10.7382 7.88 18.9458 8.83007 21.9807C5.78983 21.5373 4.02686 17.9429 3.52541 16.2011Z" stroke="#C00B0B" stroke-width="0.950074"/>
</svg>
