<svg width="19" height="19" viewBox="0 0 19 19" fill="none" xmlns="http://www.w3.org/2000/svg">
<path fill-rule="evenodd" clip-rule="evenodd" d="M5.4047 0.238037C2.64629 0.238037 0.410156 2.47417 0.410156 5.23258V13.0213C0.410156 15.7797 2.64629 18.0158 5.4047 18.0158H13.1934C15.9518 18.0158 18.1879 15.7797 18.1879 13.0213V5.23258C18.1879 2.47417 15.9518 0.238037 13.1934 0.238037H5.4047ZM5.33535 1.87939C3.52213 1.87939 2.05223 3.34929 2.05223 5.16251V13.0909C2.05223 14.9041 3.52214 16.374 5.33536 16.374H13.2288C15.042 16.374 16.512 14.9041 16.512 13.0909V5.16251C16.512 3.34929 15.042 1.87939 13.2288 1.87939H5.33535Z" fill="#959698"/>
<path fill-rule="evenodd" clip-rule="evenodd" d="M9.30014 13.7199C11.8174 13.7199 13.8581 11.6793 13.8581 9.16196C13.8581 6.64467 11.8174 4.604 9.30014 4.604C6.78285 4.604 4.74219 6.64467 4.74219 9.16196C4.74219 11.6793 6.78285 13.7199 9.30014 13.7199ZM9.29947 12.1136C10.9487 12.1136 12.2857 10.7767 12.2857 9.1274C12.2857 7.47814 10.9487 6.14115 9.29947 6.14115C7.65021 6.14115 6.31322 7.47814 6.31322 9.1274C6.31322 10.7767 7.65021 12.1136 9.29947 12.1136Z" fill="#959698"/>
<circle cx="14.0848" cy="4.3774" r="1.06527" fill="#959698"/>
</svg>
