<svg width="40" height="40" viewBox="0 0 159 112" fill="none" xmlns="http://www.w3.org/2000/svg">
<path d="M101.5 3L84 109.5H96L104 60.5C104.56 58.5771 104.829 57.5968 105.5 56C108.046 49.8767 109.299 48.0605 111.5 46C117.372 41.5159 120.995 39.327 131.5 39.5C135.775 39.9018 138.156 40.5843 142.5 46C144.034 49.4291 144.33 51.5867 144 56L135.5 109.5H148C151.515 88.6069 157.075 56.0995 157 56C156.925 55.9005 158.954 51.4081 155.5 42C152.046 32.5919 144.65 28.4493 131.5 29C120.01 29.7979 115.687 32.6292 108.5 42H107.5L113.5 3H101.5Z" fill="#C00B0B" stroke="#870000"/>
<path d="M56.5 12.9999C66.5 12.9999 79.5527 18.3834 82.5 35.4999H95.5C93.6664 21.7865 91.0401 15.6337 82.5 8.4999C73.7607 3.07658 66 1.00004 56.5 1C45 1 32.8331 5.46665 21 16.5C15.467 22.0778 12.7102 26.165 8.00004 35.4999C4.22319 45.8093 0.986369 53.3002 1.00004 69.9999C1.39968 76.9906 2.68758 81.6154 6.00004 90.4999C10.4597 97.9478 13.4889 103.521 21 107.5C38.1333 115.543 60.0995 108.5 65.5 105.5C70 103 72.7692 100.731 76 97.5C79 94.5 84.8434 85.2939 88.5 75.9999H76.5C74 80 72 83 64.5 90.5C56.9999 98 34.9454 100 21 90.4999C17 87.7749 13 75.5 13 69.9999C13 61 14.5 49.5 21 35.4999C30.8395 19.6479 48.5 12.9999 56.5 12.9999Z" fill="#C00B0B" stroke="#870000"/>
</svg>
