<svg width="23" height="19" viewBox="0 0 23 19" fill="none" xmlns="http://www.w3.org/2000/svg">
<path d="M11.4091 5.73709C6.57924 5.5488 3.08855 2.59172 1.94694 1.13672C0.278432 3.87554 2.15916 6.21496 3.30809 7.04232C2.85144 7.09367 1.75667 6.74989 1.26636 6.57158C1.42443 9.58429 3.79108 10.7511 4.95464 10.958C4.32236 11.1463 3.35931 11.1363 2.95682 11.1078C3.76473 13.5385 6.1182 14.1462 7.19395 14.1462C5.17418 15.9606 1.82985 16.186 0.410156 16.0719C4.82292 18.6395 11.6287 19.1531 16.4805 14.5741C19.6477 11.0976 20.3741 8.88108 20.564 4.64584C21.8109 3.77284 22.5471 2.77003 22.7594 2.37775C22.2149 2.68587 20.864 2.93407 20.2566 3.01966C21.3806 2.43766 22.0129 1.16524 22.1886 0.601788C21.5387 1.06397 19.9858 1.5076 19.2906 1.67164C18.1698 0.630183 17.3963 0.35596 15.8438 0.238037C12.5727 0.430611 10.9481 2.82709 11.4091 5.73709Z" fill="#959698"/>
</svg>
